# xmcd CD database file
#
# Track frame offsets:
#	150
#	17957
#	35761
#	53265
#	70773
#	90784
#	110845
#	128829
#	146780
#	164149
#	181576
#	201295
#	221015
#	239662
#	258196
#	272667
#	287232
#	308868
#	330404
#
# Disc length: 4423 seconds
#
# Revision: 0
# Processed by: cddbd v1.5.1PL0 Copyright (c) Steve Scherf et al.
# Submitted via: CDex 1.51
#
DISCID=1c114513
DTITLE=Hal Leonard - Jazz Ballads vol 4
DYEAR=1900
DGENRE=Jazz
TTITLE0=But Beautiful-split
TTITLE1=But Beautiful
TTITLE2=Here's That Rainy Day-split
TTITLE3=Here's That Rainy Day
TTITLE4=Body and Soul-split
TTITLE5=Body and Soul
TTITLE6=Misty-split
TTITLE7=Misty
TTITLE8=My Foolish Heart-split
TTITLE9=My Foolish Heart
TTITLE10=My Funny Valentine-split
TTITLE11=My Funny Valentine
TTITLE12=My One and Only Love-split
TTITLE13=My One and Only Love
TTITLE14=My Romance-split
TTITLE15=My Romance
TTITLE16=The Nearness of You-split
TTITLE17=The Nearness of You
TTITLE18=Bb Tuning Notes
EXTD=
EXTT0=
EXTT1=
EXTT2=
EXTT3=
EXTT4=
EXTT5=
EXTT6=
EXTT7=
EXTT8=
EXTT9=
EXTT10=
EXTT11=
EXTT12=
EXTT13=
EXTT14=
EXTT15=
EXTT16=
EXTT17=
EXTT18=
PLAYORDER=
